<svg width="25" height="20" fill="none" xmlns="http://www.w3.org/2000/svg"><path d="M2.833 20c-.664 0-1.233-.245-1.706-.734a2.45 2.45 0 01-.71-1.766v-15c0-.688.236-1.276.71-1.765C1.6.245 2.169 0 2.833 0h19.334c.664 0 1.233.245 1.707.735.473.49.71 1.078.71 1.765v15c0 .688-.237 1.276-.71 1.766-.474.49-1.043.734-1.707.734H2.832zM22.167 5l-9.033 5.844a1.218 1.218 0 01-.634.187c-.1 0-.206-.016-.317-.047a1.215 1.215 0 01-.317-.14L2.833 5v12.5h19.334V5zM12.5 8.75l9.666-6.25H2.834L12.5 8.75zM2.833 5.312V3.47v.03-.016 1.829z" fill="#FED501"/></svg>