<svg width="21" height="21" fill="none" xmlns="http://www.w3.org/2000/svg"><g clip-path="url(#clip0_301_8)"><path d="M19.747 3.525L17.111.892a2 2 0 00-1.418-.59c-.537 0-1.042.211-1.42.59l-2.837 2.836a2.002 2.002 0 000 2.84L13.51 8.64a9.746 9.746 0 01-1.993 2.874 9.786 9.786 0 01-2.873 2L6.57 11.44a2.002 2.002 0 00-2.84 0L.893 14.276a2.002 2.002 0 00-.59 1.42c0 .537.211 1.042.59 1.42l2.63 2.632a3.253 3.253 0 002.82.906c3.336-.55 6.646-2.324 9.316-4.992 2.668-2.666 4.44-5.973 4.997-9.32a3.258 3.258 0 00-.908-2.816z" fill="#FFD500"/></g><defs><clipPath id="clip0_301_8"><path fill="#fff" d="M0 0h21v21H0z"/></clipPath></defs></svg>