<svg width="71" height="68" fill="none" xmlns="http://www.w3.org/2000/svg"><g clip-path="url(#clip0_107_775)" fill="#353F4B"><path d="M35.444 38.112c0-.351.14-.688.39-.938.25-.249.589-.39.944-.393h7.725v-4.868H26.594v14.954h8.84v-8.755h.01zm9.069-13.274H26.605v4.407h17.908v-4.407z"/><path d="M38.137 46.867h6.376v-7.42h-6.376v7.42zm26.569-1.903a15.358 15.358 0 015.4.88l.389.162V3.294C70.495 1.13 67.582 0 64.7 0s-5.794 1.129-5.794 3.294v42.712c.127-.055.255-.11.393-.162a15.318 15.318 0 015.4-.88h.006z"/><path d="M20.749 29.245h3.163v-5.738c0-.354.141-.693.393-.943s.594-.392.95-.393h20.602c.358 0 .7.14.954.39.253.252.395.591.395.946v5.738h2.81c.343.021.665.17.9.419a1.329 1.329 0 010 1.83 1.354 1.354 0 01-.9.418h-2.81v4.869h3.393a1.362 1.362 0 011.007.36 1.335 1.335 0 01.425.973 1.325 1.325 0 01-.425.974 1.35 1.35 0 01-1.007.36h-3.393v8.75c0 .354-.142.694-.395.944s-.596.392-.954.392h-7.725v2.935c0 .353-.142.691-.394.94a1.35 1.35 0 01-1.9 0 1.325 1.325 0 01-.394-.94v-2.935H25.255a1.356 1.356 0 01-.95-.393 1.33 1.33 0 01-.393-.943V31.912h-3.163a1.354 1.354 0 01-.9-.418 1.329 1.329 0 010-1.83c.235-.248.557-.398.9-.419zM6.294 21.978c3.143 0 5.794-1.644 5.794-3.593a1.33 1.33 0 01.423-.89 1.356 1.356 0 011.848 0c.25.232.4.55.422.89v.106a.29.29 0 010 .066v38.598h46.297a9.6 9.6 0 006.157-2.215 9.434 9.434 0 003.265-5.624c-.22-.724-2.417-1.685-5.769-1.685-3.535 0-5.789 1.068-5.789 1.806 0 .355-.142.695-.395.945a1.355 1.355 0 01-1.907 0 1.33 1.33 0 01-.395-.945V13.446H13.463c-.133 0-.266-.019-.394-.056h-7.5a5.073 5.073 0 00-3.565 1.465 4.976 4.976 0 00-1.478 3.53c0 1.949 2.651 3.593 5.794 3.593h-.026z"/><path d="M6.294 67.995c2.882 0 5.794-1.129 5.794-3.294V22.98a10.904 10.904 0 01-5.794 1.664c-2.051 0-4.06-.577-5.794-1.665V64.7c0 2.166 2.912 3.295 5.794 3.295z"/></g><defs><clipPath id="clip0_107_775"><path fill="#fff" transform="translate(.5)" d="M0 0h70v68H0z"/></clipPath></defs></svg>