<svg width="51" height="68" fill="none" xmlns="http://www.w3.org/2000/svg"><g clip-path="url(#clip0_107_742)" fill="#353F4B"><path d="M43.98 39.773c-.002 1.095-.402 2.144-1.113 2.918-.712.775-1.677 1.21-2.684 1.212h-.903v7.013a4.33 4.33 0 01-1.113 2.919c-.712.774-1.677 1.21-2.683 1.21H15.516c-1.006 0-1.97-.436-2.683-1.21-.711-.775-1.112-1.824-1.113-2.92v-7.012h-.885c-1.007-.002-1.971-.437-2.683-1.212-.712-.774-1.112-1.823-1.113-2.918V28.228c0-1.095.401-2.145 1.113-2.919s1.677-1.21 2.683-1.21h.885v-7.014c.001-1.095.402-2.145 1.113-2.919.712-.774 1.677-1.21 2.684-1.211h19.967c1.006.001 1.971.437 2.683 1.211.711.774 1.112 1.824 1.113 2.919v7.013h.885c1.007.001 1.971.437 2.683 1.211.712.774 1.112 1.824 1.114 2.919v11.545h.018zm1.665-32.327l3.431-1.986a2.75 2.75 0 00.898-.841c.237-.35.4-.754.474-1.182.075-.427.06-.867-.043-1.288-.102-.42-.29-.81-.55-1.14a2.698 2.698 0 00-.951-.77 2.483 2.483 0 00-2.31.08c-.354.2-.663.485-.903.833l-2.875 4.18c-.14.206-.332.363-.554.452a1.108 1.108 0 01-.691.043C30.305 2.8 20.695 2.8 9.43 5.827c-.23.06-.47.045-.692-.043a1.215 1.215 0 01-.554-.453l-2.875-4.18A2.742 2.742 0 004.405.32a2.484 2.484 0 00-2.31-.08 2.7 2.7 0 00-.95.77c-.26.33-.447.72-.55 1.14-.103.42-.117.861-.043 1.288.075.428.237.831.474 1.182.238.35.544.637.898.841l3.431 1.986c.24.138.43.36.538.63.108.271.13.573.06.859a105.798 105.798 0 00-.096 50.196c.07.285.05.587-.059.858-.109.27-.299.493-.539.63l-3.335 1.92a2.746 2.746 0 00-.9.841c-.239.35-.402.755-.477 1.183-.075.428-.06.869.042 1.29.103.421.292.812.552 1.143.26.33.586.594.953.77a2.483 2.483 0 002.312-.085c.355-.203.664-.489.903-.838l2.624-3.807c.139-.209.331-.367.553-.456.222-.088.463-.102.693-.04 11.448 3.117 21.213 3.117 32.66 0a.958.958 0 01.288-.04c.184-.004.367.04.533.125.166.087.312.213.425.371l2.615 3.797c.24.35.548.636.903.838a2.483 2.483 0 002.313.085 2.7 2.7 0 00.952-.77c.26-.331.45-.722.552-1.143a3.15 3.15 0 00.042-1.29 3.037 3.037 0 00-.476-1.182 2.746 2.746 0 00-.9-.841l-3.336-1.916a1.27 1.27 0 01-.539-.63 1.407 1.407 0 01-.059-.86 105.798 105.798 0 00-.105-50.15 1.412 1.412 0 01.06-.858c.109-.27.299-.493.538-.631z"/><path d="M38.897 32.149h-.666v3.792a.52.52 0 01-.134.35.439.439 0 01-.323.146.439.439 0 01-.322-.145.52.52 0 01-.134-.351v-3.792h-.639a.388.388 0 01-.18-.026.415.415 0 01-.155-.106.493.493 0 01-.121-.364c0-.323.16-.497.456-.497h2.204a.37.37 0 01.185.017c.06.022.114.058.158.106a.473.473 0 01.113.373.478.478 0 01-.115.371.404.404 0 01-.157.106.376.376 0 01-.184.02h.014zm-3.75 3.702a.64.64 0 01-.147.437.49.49 0 01-.351.154.508.508 0 01-.215-.055.47.47 0 01-.191-.178l-2.127-3.083v2.815a.52.52 0 01-.133.35.438.438 0 01-.323.146.438.438 0 01-.323-.145.52.52 0 01-.133-.351v-4.319a.473.473 0 01.03-.187.435.435 0 01.763-.096l2.236 3.261v-2.978a.462.462 0 01.11-.378.388.388 0 01.16-.105.361.361 0 01.187-.013c.31 0 .456.159.456.496v4.229zm-5.632-2.79a.426.426 0 01.329.14.52.52 0 01-.15.808.425.425 0 01-.179.04h-1.597v1.4h1.707a.39.39 0 01.169.037.504.504 0 01.274.47.519.519 0 01-.134.35.438.438 0 01-.323.146h-2.149a.424.424 0 01-.175-.037.455.455 0 01-.149-.107.521.521 0 01-.123-.347v-4.304a.522.522 0 01.123-.352.437.437 0 01.324-.14h2.168c.06 0 .12.01.177.034a.454.454 0 01.25.268.536.536 0 01-.1.541.438.438 0 01-.323.145h-1.716v.914l1.597-.005zm-3.787 2.865a.489.489 0 01-.12.366.412.412 0 01-.154.107.382.382 0 01-.182.023c-.297 0-.456-.174-.456-.496v-2.373l-1.077 2.586a.432.432 0 01-.169.229.362.362 0 01-.214.074.393.393 0 01-.245-.084.451.451 0 01-.152-.224l-1.045-2.546v2.338c0 .342-.146.496-.457.496-.31 0-.456-.174-.456-.496v-4.19a.538.538 0 01.123-.439.452.452 0 01.185-.124.42.42 0 01.217-.017.473.473 0 01.297.098c.086.066.152.16.186.27l1.333 3.2 1.337-3.22a.59.59 0 01.235-.277.52.52 0 01.34-.071c.3 0 .456.198.456.59v4.18h.018zm-6.388-2.864a.437.437 0 01.324.139.52.52 0 010 .695.428.428 0 01-.146.115.394.394 0 01-.178.039h-1.6v1.4h1.706a.363.363 0 01.171.036.43.43 0 01.144.107.536.536 0 01.128.362.493.493 0 01-.128.343.43.43 0 01-.144.108.4.4 0 01-.17.036h-2.164a.395.395 0 01-.173-.035.425.425 0 01-.146-.109.52.52 0 01-.128-.347v-4.304a.52.52 0 01.128-.352.422.422 0 01.146-.106.393.393 0 01.173-.033h2.172a.437.437 0 01.324.139.536.536 0 01.132.353.502.502 0 01-.132.352.457.457 0 01-.148.11.425.425 0 01-.176.039H17.74v.913h1.601zm-3.864 2.561a2.56 2.56 0 01-1.353.863 2.397 2.397 0 01-1.563-.143 2.656 2.656 0 01-1.369-1.46 2.95 2.95 0 010-2.119c.123-.33.306-.631.538-.884a2.6 2.6 0 01.808-.61 2.269 2.269 0 011.004-.223c.31.004.619.062.912.173.295.119.564.303.79.541.05.046.09.103.12.167a.533.533 0 01.044.206.516.516 0 01-.141.337.44.44 0 01-.52.104.57.57 0 01-.147-.114 1.257 1.257 0 00-.497-.327 1.756 1.756 0 00-.58-.095c-.22 0-.44.049-.643.144a1.73 1.73 0 00-.858.963 1.865 1.865 0 000 1.36c.085.209.205.398.356.556.148.16.323.286.516.372a1.58 1.58 0 001.314 0c.208-.095.393-.243.538-.431a.466.466 0 01.155-.134.428.428 0 01.192-.05c.061 0 .122.012.178.038a.457.457 0 01.15.11.52.52 0 01.129.353.488.488 0 01-.105.323l.031-.02zm24.67-8.934h-29.31c-.372 0-.729.16-.992.446a1.599 1.599 0 00-.413 1.077v11.546c0 .404.15.792.413 1.077.263.286.62.446.992.446h29.33c.372 0 .729-.16.992-.446.264-.285.412-.673.414-1.077v-11.53a1.599 1.599 0 00-.414-1.078 1.35 1.35 0 00-.992-.446l-.018-.015zM14.111 50.916c0 .2.037.4.107.585.07.185.174.354.305.495.13.142.285.255.456.332.17.077.353.116.538.116h19.967c.372 0 .73-.16.993-.448a1.6 1.6 0 00.412-1.08v-7.014H14.111v7.014zm22.778-33.832a1.6 1.6 0 00-.412-1.08 1.35 1.35 0 00-.993-.448H15.516c-.184 0-.367.04-.537.116a1.42 1.42 0 00-.456.331c-.13.142-.234.31-.305.496-.07.186-.107.385-.107.585v7.014H36.89v-7.014z"/></g><defs><clipPath id="clip0_107_742"><path fill="#fff" transform="translate(.5)" d="M0 0h50v68H0z"/></clipPath></defs></svg>