<svg width="119" height="68" fill="none" xmlns="http://www.w3.org/2000/svg"><g clip-path="url(#clip0_107_757)" fill="#353F4B"><path d="M88.269 59.088c.162-1.119.487-2.208.964-3.23H39.418a11.91 11.91 0 01.973 3.23h47.878zm-70.897 0c.163-1.119.487-2.208.964-3.23H10.52c-.424 0-.83.17-1.13.473a1.624 1.624 0 000 2.284c.3.303.706.473 1.13.473h6.853zm11.501 8.921c1.403 0 2.775-.42 3.942-1.209a7.157 7.157 0 002.614-3.22 7.246 7.246 0 00.404-4.144 7.197 7.197 0 00-1.942-3.672 7.074 7.074 0 00-3.634-1.964 7.027 7.027 0 00-4.1.409 7.113 7.113 0 00-3.185 2.642 7.228 7.228 0 00.885 9.054 7.068 7.068 0 005.016 2.104zm88.52-12.152h-7.079c.476 1.025.803 2.113.973 3.231h6.08c.424 0 .831-.17 1.13-.473a1.623 1.623 0 000-2.284 1.588 1.588 0 00-1.13-.474h.026zm-3.353-23.319a.47.47 0 00-.391-.474l-10.996-1.95a4.998 4.998 0 01-2.21-.983 5.068 5.068 0 01-1.5-1.913L94.41 17.181a.5.5 0 00-.443-.28H81.962a.476.476 0 00-.338.14.486.486 0 00-.14.342v33.864h11.553a11.512 11.512 0 016.745-2.187c2.419 0 4.777.765 6.745 2.187h7.513v-18.71zM99.786 53.671a7.043 7.043 0 00-3.945 1.206 7.156 7.156 0 00-2.618 3.218 7.245 7.245 0 00-.406 4.147 7.197 7.197 0 001.943 3.675 7.073 7.073 0 003.635 1.963 7.025 7.025 0 004.102-.41 7.11 7.11 0 003.185-2.646 7.227 7.227 0 001.192-3.988 7.214 7.214 0 00-2.078-5.064 7.058 7.058 0 00-5.01-2.1zM19.5 18.692a2.319 2.319 0 01.716-1.54 2.271 2.271 0 011.564-.627c.582 0 1.142.225 1.565.627.424.403.68.954.716 1.54v15.61a2.32 2.32 0 01-.716 1.54 2.271 2.271 0 01-1.564.628 2.271 2.271 0 01-1.565-.627 2.319 2.319 0 01-.716-1.54v-15.61zm12.083 0a2.321 2.321 0 01.666-1.626 2.274 2.274 0 011.61-.674 2.254 2.254 0 011.609.674 2.303 2.303 0 01.666 1.626v15.61a2.321 2.321 0 01-.666 1.627 2.274 2.274 0 01-1.61.674 2.255 2.255 0 01-1.609-.674 2.303 2.303 0 01-.666-1.626v-15.61zm12.074 0a2.32 2.32 0 01.715-1.54 2.271 2.271 0 011.565-.627c.581 0 1.14.225 1.564.627.424.403.68.954.716 1.54v15.61a2.319 2.319 0 01-.716 1.54 2.271 2.271 0 01-1.564.628 2.271 2.271 0 01-1.565-.627 2.32 2.32 0 01-.715-1.54v-15.61zm12.082 0a2.323 2.323 0 01.667-1.626 2.274 2.274 0 011.609-.674 2.255 2.255 0 011.609.674 2.303 2.303 0 01.666 1.626v15.61a2.321 2.321 0 01-.666 1.627 2.274 2.274 0 01-1.61.674 2.255 2.255 0 01-1.608-.674 2.302 2.302 0 01-.667-1.626v-15.61zM6.228 42.635a.465.465 0 00.443.299h62.818a.473.473 0 00.441-.299.488.488 0 00.037-.184V9.403a5.12 5.12 0 011.472-3.597 5.01 5.01 0 013.557-1.495h7.166a.486.486 0 00.478-.483V.483a.486.486 0 00-.14-.342.475.475 0 00-.338-.141H64.138a.475.475 0 00-.337.141.486.486 0 00-.14.342v2.23a5.12 5.12 0 01-1.473 3.598 5.011 5.011 0 01-3.557 1.494H17.372a.448.448 0 00-.347.158L.087 26.735a.494.494 0 00-.087.509l6.185 15.391h.043z"/></g><defs><clipPath id="clip0_107_757"><path fill="#fff" d="M0 0h119v68H0z"/></clipPath></defs></svg>