<svg width="81" height="68" fill="none" xmlns="http://www.w3.org/2000/svg"><g clip-path="url(#clip0_107_726)" fill="#353F4B"><path d="M11.32 32.836l-1.168 5.2a3.62 3.62 0 000 1.658c.69 2.958 4.216 5.605 9.927 7.465 5.519 1.791 12.777 2.78 20.438 2.78 7.662 0 14.914-.989 20.438-2.78 5.723-1.86 9.25-4.507 9.927-7.465a3.7 3.7 0 000-1.658l-1.168-5.2-1.751-7.72a27.905 27.905 0 00-9.857-15.6 28.946 28.946 0 00-3.416-2.311l-1.168 15.693a13.581 13.581 0 01-1.016 12.737 13.794 13.794 0 01-4.798 4.558 13.983 13.983 0 01-12.904.485 13.826 13.826 0 01-5.133-4.185 13.635 13.635 0 01-2.572-6.069c-.346-2.2-.146-4.45.583-6.555L26.41 7.198a27.836 27.836 0 00-8.54 7.594 27.504 27.504 0 00-4.733 10.352l-1.752 7.72-.064-.03z"/><path d="M40.728 35.228a7.06 7.06 0 01-3.893-1.169 6.95 6.95 0 01-2.581-3.111 6.866 6.866 0 01-.399-4.006 6.911 6.911 0 011.918-3.55 7.031 7.031 0 013.588-1.898 7.077 7.077 0 014.048.395 6.992 6.992 0 013.145 2.553 6.881 6.881 0 011.181 3.852 6.897 6.897 0 01-2.052 4.903 7.045 7.045 0 01-4.955 2.03zm0-17.611a10.873 10.873 0 00-5.998 1.797 10.702 10.702 0 00-3.977 4.791 10.573 10.573 0 00-.615 6.17 10.643 10.643 0 002.953 5.47 10.827 10.827 0 005.527 2.922c2.094.412 4.264.2 6.236-.61a10.768 10.768 0 004.843-3.934 10.596 10.596 0 001.816-5.935 10.62 10.62 0 00-3.16-7.544 10.85 10.85 0 00-7.625-3.127z"/><path d="M40.727 24.388c-.78 0-1.541.23-2.19.658a3.91 3.91 0 00-1.451 1.75 3.862 3.862 0 00-.224 2.253 3.888 3.888 0 001.078 1.997 3.954 3.954 0 002.019 1.068 3.98 3.98 0 002.277-.222 3.934 3.934 0 001.769-1.437 3.871 3.871 0 00.664-2.166 3.885 3.885 0 00-1.156-2.757 3.97 3.97 0 00-2.785-1.144zM51.77 4.669l.111-1.45a2.968 2.968 0 00-.801-2.26A3.058 3.058 0 0048.862 0H32.138a3.058 3.058 0 00-2.218.959 2.992 2.992 0 00-.801 2.26l.11 1.45 1.116 14.543a13.829 13.829 0 014.546-3.362 13.96 13.96 0 0111.106-.246 13.847 13.847 0 014.693 3.157l1.08-14.092zm24.853 45.587l3.614-6.46c.235-.407.315-.885.228-1.346-.444-2.143-3.013-4.68-7.054-7.049l.45 1.988a6.798 6.798 0 010 3.004c-.952 4.091-5.093 7.436-11.977 9.672-5.84 1.89-13.43 2.93-21.39 2.93-7.96 0-15.568-1.04-21.39-2.93C12.22 47.83 8.08 44.484 7.128 40.393a6.805 6.805 0 010-3.01l.45-1.982c-4.042 2.37-6.611 4.906-7.055 7.05-.087.46-.007.938.228 1.345l3.615 6.46c.151.27.363.504.619.682L29.008 67.63c.342.239.75.37 1.168.376h20.578a2.094 2.094 0 001.168-.376l24.023-16.692c.256-.178.468-.411.62-.682h.058z"/></g><defs><clipPath id="clip0_107_726"><path fill="#fff" transform="translate(.5)" d="M0 0h80v68H0z"/></clipPath></defs></svg>