<svg width="48" height="29" fill="none" xmlns="http://www.w3.org/2000/svg"><path d="M47.926 2.855c.377 1.047-.852 3.452-3.688 7.216-.394.523-.927 1.219-1.599 2.086a58.006 58.006 0 00-1.352 1.767c-.246.344-.496.749-.75 1.215-.254.466-.353.81-.295 1.03.057.222.164.504.32.848.155.343.422.695.799 1.055.377.36.844.794 1.401 1.301.066.033.107.065.123.098 2.312 2.144 3.877 3.952 4.697 5.424.05.082.102.184.16.307.057.123.114.34.172.65.057.312.053.59-.013.835-.065.246-.27.47-.614.675-.344.205-.828.307-1.451.307l-6.295.098c-.394.082-.853.041-1.377-.123-.525-.163-.951-.343-1.279-.54l-.492-.294c-.492-.344-1.065-.867-1.721-1.57a43.865 43.865 0 01-1.684-1.903 8.14 8.14 0 00-1.5-1.424c-.533-.384-.996-.511-1.39-.38a1.622 1.622 0 00-.197.086c-.081.04-.22.16-.418.356a3.122 3.122 0 00-.528.724c-.156.286-.295.711-.418 1.276a8.076 8.076 0 00-.16 1.902c0 .246-.029.47-.086.675a1.657 1.657 0 01-.184.454l-.099.123c-.295.31-.73.49-1.303.54h-2.828c-1.164.065-2.36-.07-3.59-.405s-2.308-.77-3.234-1.3a29.516 29.516 0 01-2.533-1.62c-.762-.549-1.34-1.02-1.733-1.412l-.615-.59a15.3 15.3 0 01-.676-.735c-.287-.328-.873-1.072-1.758-2.234a61.378 61.378 0 01-2.607-3.706c-.852-1.31-1.857-3.035-3.012-5.18a80.947 80.947 0 01-3.21-6.675C.812 3.55.763 3.329.763 3.149c0-.18.025-.31.074-.393l.098-.147c.246-.31.713-.466 1.402-.466l6.738-.05c.196.034.385.087.565.16.18.074.312.144.394.209l.123.074c.262.18.459.441.59.785.328.818.705 1.665 1.131 2.54.426.876.762 1.543 1.008 2l.394.712c.475.982.934 1.833 1.377 2.553.442.72.84 1.28 1.192 1.681.353.401.693.716 1.02.945.329.23.607.344.837.344.23 0 .45-.041.664-.123a.421.421 0 00.123-.123c.049-.065.147-.245.295-.54.147-.294.258-.678.332-1.153.073-.475.151-1.137.233-1.988.082-.851.082-1.874 0-3.068a11.394 11.394 0 00-.22-1.792c-.116-.54-.23-.916-.345-1.129l-.148-.294c-.41-.557-1.106-.909-2.09-1.056-.213-.033-.172-.229.123-.589.262-.31.574-.556.934-.736.87-.426 2.828-.622 5.877-.59 1.345.017 2.451.123 3.32.32.328.082.603.192.824.331.221.14.39.336.504.59.115.253.2.515.258.785.058.27.086.642.086 1.116 0 .475-.008.925-.024 1.35a372.02 372.02 0 00-.062 1.73 60.25 60.25 0 00-.037 2.026c0 .18-.008.523-.024 1.03-.017.508-.02.9-.012 1.178.008.279.036.61.085.995.05.384.144.703.283.957.14.253.324.454.554.601.13.033.27.066.418.098.147.033.36-.057.639-.27.279-.212.59-.495.934-.846.345-.352.77-.9 1.28-1.645a52.666 52.666 0 001.671-2.638 40.02 40.02 0 002.63-5.523c.066-.164.148-.307.246-.43.099-.122.189-.208.27-.257l.1-.074.122-.061.32-.074.492-.012 7.082-.05c.639-.08 1.163-.06 1.573.062.41.123.664.258.763.405l.147.246z" fill="#353F4B"/></svg>