<svg width="38" height="26" fill="none" xmlns="http://www.w3.org/2000/svg"><g clip-path="url(#clip0_105_408)"><path d="M15.2 18.571L25.061 13 15.2 7.429V18.57zM37.164 4.03c.247.873.418 2.043.532 3.529.133 1.485.19 2.767.19 3.881L38 13c0 4.067-.304 7.057-.836 8.97-.475 1.671-1.577 2.749-3.287 3.213-.893.241-2.527.408-5.035.52-2.47.13-4.731.186-6.821.186L19 26c-7.961 0-12.92-.297-14.877-.817-1.71-.464-2.812-1.542-3.287-3.213-.247-.873-.418-2.043-.532-3.529a43.682 43.682 0 01-.19-3.881L0 13c0-4.067.304-7.057.836-8.97.475-1.671 1.577-2.749 3.287-3.213C5.016.576 6.65.41 9.158.297c2.47-.13 4.731-.186 6.821-.186L19 0c7.961 0 12.92.297 14.877.817 1.71.464 2.812 1.542 3.287 3.213z" fill="#353F4B"/></g><defs><clipPath id="clip0_105_408"><path fill="#fff" d="M0 0h38v26H0z"/></clipPath></defs></svg>