<svg width="25" height="26" fill="none" xmlns="http://www.w3.org/2000/svg"><g clip-path="url(#clip0_105_414)" fill="#353F4B"><path d="M12.5 8.667a4.087 4.087 0 00-2.946 1.269A4.423 4.423 0 008.334 13c0 1.15.438 2.252 1.22 3.064a4.087 4.087 0 002.946 1.27 4.087 4.087 0 002.946-1.27A4.423 4.423 0 0016.666 13c0-1.15-.438-2.252-1.22-3.064a4.087 4.087 0 00-2.946-1.27z"/><path fill-rule="evenodd" clip-rule="evenodd" d="M7.5 0C5.51 0 3.603.822 2.197 2.285.79 3.747 0 5.73 0 7.8v10.4c0 2.069.79 4.053 2.197 5.515C3.603 25.178 5.51 26 7.5 26h10c1.99 0 3.897-.822 5.303-2.285C24.21 22.253 25 20.27 25 18.2V7.8c0-2.069-.79-4.053-2.197-5.515C21.397.822 19.49 0 17.5 0h-10zm-.833 13c0-1.609.614-3.152 1.708-4.29A5.722 5.722 0 0112.5 6.933c1.547 0 3.03.64 4.125 1.777A6.192 6.192 0 0118.333 13a6.192 6.192 0 01-1.708 4.29 5.722 5.722 0 01-4.125 1.777c-1.547 0-3.03-.64-4.125-1.777A6.192 6.192 0 016.667 13zm11.666-6.067H20V5.2h-1.667v1.733z"/></g><defs><clipPath id="clip0_105_414"><path fill="#fff" d="M0 0h25v26H0z"/></clipPath></defs></svg>