<svg width="24" height="26" fill="none" xmlns="http://www.w3.org/2000/svg"><g clip-path="url(#clip0_105_410)" fill="#353F4B"><path d="M18.262 8.76a10.335 10.335 0 006.069 1.96V6.325c-.429 0-.856-.045-1.275-.135v3.46c-2.263 0-4.358-.726-6.069-1.96v8.97c0 4.487-3.603 8.124-8.049 8.124-1.658 0-3.2-.506-4.48-1.374a7.988 7.988 0 005.755 2.444c4.445 0 8.049-3.637 8.049-8.124V8.76zm1.572-4.434A6.153 6.153 0 0118.262.738V.173h-1.208a6.155 6.155 0 002.78 4.152zM7.27 19.965a3.724 3.724 0 01-.75-2.25C6.518 15.665 8.165 14 10.2 14c.379 0 .756.059 1.117.175V9.68a8.044 8.044 0 00-1.274-.074v3.498a3.654 3.654 0 00-1.117-.175c-2.034 0-3.682 1.664-3.682 3.717a3.72 3.72 0 002.025 3.32z"/><path d="M16.099 7.69a10.337 10.337 0 006.068 1.96V6.19a6.078 6.078 0 01-3.222-1.865 6.156 6.156 0 01-2.78-4.152h-3.172V17.73c-.007 2.047-1.653 3.704-3.682 3.704a3.666 3.666 0 01-2.931-1.466 3.72 3.72 0 01-2.026-3.32c0-2.053 1.649-3.717 3.682-3.717.39 0 .766.062 1.118.175V9.607c-4.367.091-7.88 3.693-7.88 8.123 0 2.21.875 4.215 2.295 5.68a7.959 7.959 0 004.48 1.374c4.446 0 8.05-3.637 8.05-8.124V7.69z"/><path d="M22.167 6.19v-.936a6.026 6.026 0 01-3.222-.929 6.073 6.073 0 003.222 1.865zM16.165.174a6.295 6.295 0 01-.067-.505v-.566h-4.38V16.66c-.007 2.047-1.652 3.704-3.682 3.704a3.638 3.638 0 01-1.656-.396 3.666 3.666 0 002.93 1.466c2.03 0 3.676-1.657 3.683-3.703V.173h3.172zM9.154 9.607v-.996a8.05 8.05 0 00-1.104-.075C3.604 8.536 0 12.173 0 16.66a8.137 8.137 0 003.569 6.75 8.136 8.136 0 01-2.294-5.68c0-4.43 3.512-8.032 7.879-8.123z"/></g><defs><clipPath id="clip0_105_410"><path fill="#fff" d="M0 0h24v26H0z"/></clipPath></defs></svg>